<?xml version="1.0"?>
<svg width="440" height="380" style="border:2px solid black" xmlns="http://www.w3.org/2000/svg" xmlns:svg="http://www.w3.org/2000/svg">
 <!-- Created with SVG-edit - https://github.com/SVG-Edit/svgedit-->
 <g class="layer">
  <title>Layer 1</title>
  <polyline fill="none" id="svg_6" opacity="0.5" points="371.5,248.5 " stroke="#000000" stroke-dasharray="null" stroke-linecap="round" stroke-linejoin="null" stroke-width="5"/>
  <text fill="#3f7f00" font-family="serif" font-size="26" font-weight="bold" id="svg_1" stroke="#000000" stroke-dasharray="null" stroke-linecap="null" stroke-linejoin="null" stroke-width="0" text-anchor="middle" transform="matrix(0.442782 0 0 1 213.524 0)" x="359.385349" xml:space="preserve" y="203.878277">CARLOS</text>
  <text fill="#3f7f00" font-family="serif" font-size="26" font-weight="bold" id="svg_2" stroke="#000000" stroke-dasharray="null" stroke-linecap="null" stroke-linejoin="null" stroke-width="0" text-anchor="middle" transform="matrix(0.389193 0 0 1 164.403 0)" x="538.422366" xml:space="preserve" y="226.445633">ESTRADA</text>
  <line fill="none" id="svg_3" stroke="#7f0000" stroke-dasharray="null" stroke-linecap="null" stroke-linejoin="null" x1="349.433519" x2="398.017399" y1="207.094581" y2="206.066454"/>
  <path class="logo" d="m347.53059,181.50001c0,0 47.44898,-0.51021 47.39798,-0.86736c-0.051,-0.35715 8.54081,-24.67346 6.4898,-29.53061c-2.05101,-4.85715 -66.36384,-77.93532 -156.13932,-69.56799c-89.77548,8.36733 -125.76209,54.60538 -136.52738,94.55436c-10.76529,39.94897 -3.96719,86.43888 25.57365,116.69398c29.54084,30.25509 70.93766,48.37978 136.19277,40.36956c65.25511,-8.01022 126.98003,-92.59058 127.47171,-93.33563c0.49168,-0.74505 0.5612,-9.33672 0.5102,-9.69387c-0.051,-0.35715 -48.06297,-0.66324 -48.52158,-1.17346c-0.4586,-0.51022 -47.34578,48.46939 -88.67231,53.06123c-41.32654,4.59183 -85.24375,-33.79244 -86.26415,-73.58835c-1.0204,-39.79592 29.56006,-74.22799 78.45802,-79.93207c48.89796,-5.70408 91.37187,24.17574 93.83901,32.40926c2.46714,8.23352 0.1916,20.60095 0.1916,20.60095z" fill="#7f0000" id="svg_4" stroke="#3f7f00" stroke-dasharray="null" stroke-linecap="null" stroke-linejoin="null" stroke-width="null"/>
  <path d="m235.62243,273.50001c1,-0.5 26.06122,1.02043 26.01022,-0.86735c-0.051,-1.88778 6.68365,-42.68368 6.12245,-42.02042c-0.5612,0.66326 77.09182,-2.19386 77.04082,-2.55102c-0.051,-0.35715 0.5612,-38.41836 0.5102,-38.77551c-0.051,-0.35715 -68.31634,9.03062 -67.85714,9.18368c0.4592,0.15306 12.2959,-59.33673 11.73469,-60.20408c-0.5612,-0.86735 -78.01022,22.29592 -78.06122,21.93877c-0.051,-0.35715 23.49998,113.79593 24.49998,113.29593z" fill="#3f7f00" id="svg_5" stroke="#7f0000" stroke-dasharray="null" stroke-linecap="null" stroke-linejoin="null" stroke-width="null"/>
 </g>
</svg>
